<svg width="166" height="170" fill="none" xmlns="http://www.w3.org/2000/svg"><g opacity=".15"><path d="M165.868 35.483c.488 16.76-17.09 35.383-32.714 35.383-2.93 0-5.859.466-8.789.931-7.324 1.397-12.695 6.518-12.206 13.036 0 6.984 5.37 12.105 13.183 12.57 9.277.932 18.554 2.794 26.366 8.381 10.742 7.915 15.136 18.623 14.16 30.262-1.465 17.692-11.23 29.332-30.273 33.056-14.159 2.794-26.366-.931-35.643-11.174-9.765-11.173-12.207-24.209-6.347-38.177 1.464-3.724 2.44-7.914 3.417-12.105.977-5.121-1.953-8.846-6.835-11.173-4.395-2.328-8.79-1.863-12.207 1.396-4.883 4.191-9.277 8.846-13.671 13.502C48.684 127.2 14.017 125.338 2.787 96.938c-8.3-21.416 8.789-45.626 34.179-47.488 12.206-.931 22.46 4.19 30.76 13.036 1.465 1.862 2.93 3.259 4.395 5.121 4.883 6.518 12.206 8.846 18.066 6.053 5.859-3.26 8.3-11.174 5.37-18.158-5.37-12.105-8.3-24.21-1.464-36.315C102.393 4.755 116.065-.832 129.736.1c16.113.931 28.319 8.846 33.69 24.21.489 3.259 1.465 6.983 2.442 11.174z" fill="#576578"/><path d="M165.868 35.483c.488 16.76-17.09 35.383-32.714 35.383-2.93 0-5.859.466-8.789.931-7.324 1.397-12.695 6.518-12.206 13.036 0 6.984 5.37 12.105 13.183 12.57 9.277.932 18.554 2.794 26.366 8.381 10.742 7.915 15.136 18.623 14.16 30.262-1.465 17.692-11.23 29.332-30.273 33.056-14.159 2.794-26.366-.931-35.643-11.174-9.765-11.173-12.207-24.209-6.347-38.177 1.464-3.724 2.44-7.914 3.417-12.105.977-5.121-1.953-8.846-6.835-11.173-4.395-2.328-8.79-1.863-12.207 1.396-4.883 4.191-9.277 8.846-13.671 13.502C48.684 127.2 14.017 125.338 2.787 96.938c-8.3-21.416 8.789-45.626 34.179-47.488 12.206-.931 22.46 4.19 30.76 13.036 1.465 1.862 2.93 3.259 4.395 5.121 4.883 6.518 12.206 8.846 18.066 6.053 5.859-3.26 8.3-11.174 5.37-18.158-5.37-12.105-8.3-24.21-1.464-36.315C102.393 4.755 116.065-.832 129.736.1c16.113.931 28.319 8.846 33.69 24.21.489 3.259 1.465 6.983 2.442 11.174z" fill="url(#paint0_linear)" fill-opacity=".6"/></g><defs><linearGradient id="paint0_linear" x1="96.045" y1="-64.616" x2="96.045" y2="234.283" gradientUnits="userSpaceOnUse"><stop stop-color="#fff"/><stop offset=".488" stop-color="#fff" stop-opacity=".3"/><stop offset="1" stop-color="#fff" stop-opacity="0"/></linearGradient></defs></svg>